<svg width="40" height="41" viewBox="0 0 40 41" fill="none" xmlns="http://www.w3.org/2000/svg">
<g clip-path="url(#clip0_1_7597)">
<path d="M31.6735 0.160251L8.32834 0.160249C3.69217 0.380717 0.000915173 4.20908 0.000914763 8.89994L0.000914362 13.4867L40.0009 13.4867L40.0009 8.89994C40.0009 4.20908 36.3097 0.38072 31.6735 0.160251Z" fill="#FF4B55"/>
<path d="M0.000915126 31.4C0.000914704 36.2325 3.91841 40.15 8.75091 40.15L31.2509 40.15C36.0834 40.15 40.0009 36.2325 40.0009 31.4L40.0009 26.8132L0.000915527 26.8132L0.000915126 31.4Z" fill="#464655"/>
<path d="M40.0009 13.4871L0.000915527 13.4871L0.000914362 26.8137L40.0009 26.8137L40.0009 13.4871Z" fill="#F5F5F5"/>
<path d="M22.9532 18.3242C22.9532 17.8657 22.504 17.542 22.069 17.687L21.2517 17.9595L21.0532 16.7609C20.9345 16.0459 20.3219 15.5269 19.5967 15.5269L18.8322 15.5269L18.0326 16.511L19.0914 16.511L18.795 17.9746L17.9327 17.6871C17.4977 17.5421 17.0485 17.8658 17.0485 18.3243L17.0485 23.297L18.2386 22.1068L17.6778 23.7891L17.0484 23.7891L17.0484 24.7732L22.9531 24.7732L22.9531 23.7891L22.3237 23.7891L21.7628 22.1068L22.953 23.297L22.953 18.3242L22.9532 18.3242ZM19.5088 23.7889L18.7155 23.7889L19.261 22.3321L19.5088 22.6485L19.5088 23.7889ZM20.4929 23.7889L20.4929 22.6485L20.7407 22.3321L21.2863 23.7889L20.4929 23.7889ZM20.0009 22.0053C20.0009 22.0053 18.4786 20.975 18.5401 19.0529C18.5401 19.0529 19.4781 18.8992 20.0009 18.0688C20.5237 18.8991 21.4617 19.0529 21.4617 19.0529C21.5231 20.975 20.0009 22.0053 20.0009 22.0053Z" fill="#F0C727"/>
</g>
<defs>
<clipPath id="clip0_1_7597">
<rect width="40" height="40" fill="white" transform="translate(0.000915527 0.155151)"/>
</clipPath>
</defs>
</svg>
