<svg width="40" height="41" viewBox="0 0 40 41" fill="none" xmlns="http://www.w3.org/2000/svg">
<g clip-path="url(#clip0_1_7635)">
<path d="M31.2499 0.155154L8.74994 0.155152C3.91744 0.155152 -6.13776e-05 4.07265 -6.18001e-05 8.90515L-6.37671e-05 31.4052C-6.41896e-05 36.2377 3.91744 40.1552 8.74994 40.1552L31.2499 40.1552C36.0824 40.1552 39.9999 36.2377 39.9999 31.4052L39.9999 8.90515C39.9999 4.07265 36.0824 0.155155 31.2499 0.155154Z" fill="#F5F5F5"/>
<path d="M20.0001 27.7412C24.1897 27.7412 27.586 24.3449 27.586 20.1553C27.586 15.9657 24.1897 12.5694 20.0001 12.5694C15.8105 12.5694 12.4142 15.9657 12.4142 20.1553C12.4142 24.3449 15.8105 27.7412 20.0001 27.7412Z" fill="#FF4B55"/>
</g>
<defs>
<clipPath id="clip0_1_7635">
<rect width="40" height="40" fill="white" transform="translate(-6.10352e-05 0.155151)"/>
</clipPath>
</defs>
</svg>
