<svg width="40" height="41" viewBox="0 0 40 41" fill="none" xmlns="http://www.w3.org/2000/svg">
<g clip-path="url(#clip0_1_7627)">
<path d="M31.2499 0.155154L8.74994 0.155152C3.91744 0.155152 -6.13776e-05 4.07265 -6.18001e-05 8.90515L-6.27836e-05 20.1552L39.9999 20.1552L39.9999 8.90515C39.9999 4.07265 36.0824 0.155155 31.2499 0.155154Z" fill="#F5F5F5"/>
<path d="M-6.20187e-05 31.4052C-6.24411e-05 36.2376 3.91744 40.1552 8.74994 40.1552L31.2499 40.1552C36.0824 40.1552 39.9999 36.2377 39.9999 31.4052L39.9999 20.1552L-6.10352e-05 20.1552L-6.20187e-05 31.4052Z" fill="#FF4B55"/>
<path d="M13.7931 11.1896C8.84163 11.1896 4.82757 15.2036 4.82757 20.1552L22.7586 20.1552C22.7586 15.2037 18.7446 11.1896 13.7931 11.1896Z" fill="#FF4B55"/>
<path d="M13.7931 29.1207C18.7446 29.1207 22.7587 25.1067 22.7587 20.1552L4.82756 20.1552C4.82756 25.1066 8.84154 29.1207 13.7931 29.1207Z" fill="#F5F5F5"/>
</g>
<defs>
<clipPath id="clip0_1_7627">
<rect width="40" height="40" fill="white" transform="translate(-6.10352e-05 0.155151)"/>
</clipPath>
</defs>
</svg>
