<svg width="40" height="41" viewBox="0 0 40 41" fill="none" xmlns="http://www.w3.org/2000/svg">
<g clip-path="url(#clip0_1_7619)">
<path d="M39.9999 9.38578L-6.10352e-05 9.38577L-6.13041e-05 12.4623L39.9999 12.4623L39.9999 9.38578Z" fill="#F5F5F5"/>
<path d="M37.9113 3.23249L2.08877 3.23248C1.33033 4.12217 0.746662 5.16538 0.391662 6.30944L39.6084 6.30945C39.2534 5.16538 38.6697 4.12218 37.9113 3.23249Z" fill="#F5F5F5"/>
<path d="M39.9999 15.5396L-6.10352e-05 15.5396L-6.13041e-05 18.6162L39.9999 18.6162L39.9999 15.5396Z" fill="#F5F5F5"/>
<path d="M39.9999 21.6935L-6.10352e-05 21.6935L-6.13041e-05 24.7701L39.9999 24.7701L39.9999 21.6935Z" fill="#F5F5F5"/>
<path d="M39.9999 27.8474L-6.10352e-05 27.8474L-6.13041e-05 30.9239L39.9999 30.9239L39.9999 27.8474Z" fill="#F5F5F5"/>
<path d="M39.6084 34.0013L0.391663 34.0013C0.746584 35.1454 1.33033 36.1885 2.08877 37.0782L37.9112 37.0782C38.6697 36.1885 39.2534 35.1454 39.6084 34.0013Z" fill="#F5F5F5"/>
<path d="M31.25 0.155154L8.75 0.155152C6.08218 0.155152 3.69367 1.34945 2.08874 3.2321L37.9112 3.23211C36.3063 1.34945 33.9178 0.155154 31.25 0.155154Z" fill="#FF4B55"/>
<path d="M39.9999 12.4629L-6.10352e-05 12.4629L-6.13041e-05 15.5395L39.9999 15.5395L39.9999 12.4629Z" fill="#FF4B55"/>
<path d="M39.9999 8.90512C39.9999 8.00113 39.8628 7.12926 39.6083 6.30902L0.39158 6.30902C0.137048 7.12926 -6.11831e-05 8.00113 -6.12621e-05 8.90511L-6.13041e-05 9.3859L39.9999 9.3859L39.9999 8.90512Z" fill="#FF4B55"/>
<path d="M39.9999 18.6168L-6.10352e-05 18.6168L-6.13041e-05 21.6933L39.9999 21.6933L39.9999 18.6168Z" fill="#FF4B55"/>
<path d="M39.9999 31.4049L39.9999 30.9241L-6.10352e-05 30.9241L-6.10772e-05 31.4049C-6.11562e-05 32.3088 0.137048 33.1807 0.391579 34.001L39.6083 34.001C39.8628 33.1807 39.9999 32.3088 39.9999 31.4049Z" fill="#FF4B55"/>
<path d="M37.9113 37.0778L2.08875 37.0778C3.69367 38.9605 6.08218 40.1548 8.75 40.1548L31.25 40.1548C33.9178 40.1548 36.3063 38.9605 37.9113 37.0778Z" fill="#FF4B55"/>
<path d="M39.9999 24.7706L-6.10352e-05 24.7706L-6.13041e-05 27.8472L39.9999 27.8472L39.9999 24.7706Z" fill="#FF4B55"/>
<path d="M21.5384 0.155153L8.74994 0.155152C3.91744 0.155152 -6.13776e-05 4.07265 -6.18001e-05 8.90515L-6.29181e-05 21.6936L21.5384 21.6936L21.5384 0.155153Z" fill="#41479B"/>
<path d="M2.32378 3.51979C2.30331 3.58456 2.37698 3.63815 2.4323 3.59862L2.85909 3.29362L3.28589 3.59862C3.34112 3.63815 3.41487 3.58456 3.3944 3.51979L3.2362 3.01964L3.65823 2.708C3.71284 2.66761 3.68471 2.58097 3.61675 2.58042L3.09222 2.57636L3.00269 2.30792C2.77784 2.50394 2.56339 2.71144 2.35972 2.92917L2.48214 3.01964L2.32378 3.51979Z" fill="#F5F5F5"/>
<path d="M2.92616 6.2298L3.09209 6.72746L3.61663 6.73152C3.68452 6.73206 3.71272 6.81871 3.65811 6.8591L3.23608 7.17074L3.39428 7.67089C3.41475 7.73566 3.34108 7.78918 3.28577 7.74972L2.85897 7.44464L2.43217 7.74972C2.37694 7.78925 2.30319 7.73566 2.32365 7.67089L2.48186 7.17074L2.05983 6.8591C2.00522 6.81878 2.03334 6.73206 2.10123 6.73152L2.62576 6.72746L2.7917 6.2298C2.8135 6.16534 2.90467 6.16534 2.92616 6.2298Z" fill="#F5F5F5"/>
<path d="M2.92616 10.8338L3.09209 11.3314L3.61663 11.3355C3.68452 11.336 3.71272 11.4227 3.65811 11.4631L3.23608 11.7747L3.39428 12.2749C3.41475 12.3396 3.34108 12.3931 3.28577 12.3537L2.85897 12.0487L2.43217 12.3537C2.37694 12.3931 2.30319 12.3396 2.32365 12.2749L2.48186 11.7747L2.05983 11.4631C2.00522 11.4227 2.03334 11.336 2.10123 11.3355L2.62576 11.3314L2.7917 10.8338C2.8135 10.7693 2.90467 10.7693 2.92616 10.8338Z" fill="#F5F5F5"/>
<path d="M2.92616 15.0639L3.09209 15.5616L3.61663 15.5656C3.68452 15.5662 3.71272 15.6528 3.65811 15.6932L3.23608 16.0049L3.39428 16.505C3.41475 16.5698 3.34108 16.6233 3.28577 16.5838L2.85897 16.2788L2.43217 16.5838C2.37694 16.6233 2.30319 16.5698 2.32365 16.505L2.48186 16.0049L2.05983 15.6932C2.00522 15.6529 2.03334 15.5662 2.10123 15.5656L2.62576 15.5616L2.7917 15.0639C2.8135 14.9995 2.90467 14.9995 2.92616 15.0639Z" fill="#F5F5F5"/>
<path d="M2.92616 18.9134L3.09209 19.411L3.61663 19.4151C3.68452 19.4156 3.71272 19.5023 3.65811 19.5427L3.23608 19.8543L3.39428 20.3544C3.41475 20.4192 3.34108 20.4727 3.28577 20.4333L2.85897 20.1283L2.43217 20.4333C2.37694 20.4727 2.30319 20.4192 2.32365 20.3544L2.48186 19.8543L2.05983 19.5427C2.00522 19.5023 2.03334 19.4156 2.10123 19.4151L2.62576 19.411L2.7917 18.9134C2.8135 18.8489 2.90467 18.8489 2.92616 18.9134Z" fill="#F5F5F5"/>
<path d="M4.94676 4.04453L5.1127 4.54218L5.63723 4.54625C5.70512 4.54679 5.73332 4.63343 5.67871 4.67375L5.25668 4.98539L5.41488 5.48554C5.43535 5.55031 5.36168 5.6039 5.30637 5.56437L4.87973 5.25929L4.45293 5.56437C4.3977 5.6039 4.32395 5.55031 4.34442 5.48554L4.50262 4.98539L4.08067 4.67375C4.02606 4.63343 4.05418 4.54671 4.12208 4.54624L4.6466 4.54218L4.81254 4.04453C4.8341 3.98007 4.92528 3.98007 4.94676 4.04453Z" fill="#F5F5F5"/>
<path d="M4.94669 8.64847L5.11262 9.14613L5.63715 9.15019C5.70504 9.15073 5.73325 9.23738 5.67864 9.27777L5.25661 9.58941L5.41481 10.0896C5.43528 10.1543 5.36161 10.2079 5.30629 10.1684L4.8795 9.86331L4.4527 10.1684C4.39747 10.2079 4.32372 10.1543 4.34419 10.0896L4.50239 9.58941L4.08044 9.27777C4.02583 9.23745 4.05396 9.15073 4.12185 9.15019L4.64638 9.14613L4.81231 8.64847C4.83403 8.58401 4.9252 8.58401 4.94669 8.64847Z" fill="#F5F5F5"/>
<path d="M4.94667 13.0229L5.11261 13.5205L5.63714 13.5246C5.70503 13.5252 5.73323 13.6118 5.67862 13.6522L5.25659 13.9638L5.41479 14.464C5.43526 14.5288 5.36159 14.5823 5.30628 14.5428L4.87948 14.2377L4.45269 14.5428C4.39745 14.5824 4.32371 14.5288 4.34417 14.464L4.50238 13.9638L4.08042 13.6522C4.02582 13.6119 4.05394 13.5252 4.12183 13.5246L4.64636 13.5205L4.8123 13.0229C4.83402 12.9585 4.92519 12.9585 4.94667 13.0229Z" fill="#F5F5F5"/>
<path d="M4.94667 16.9512L5.11261 17.4488L5.63714 17.4529C5.70503 17.4534 5.73323 17.5401 5.67862 17.5805L5.25659 17.8921L5.41479 18.3923C5.43526 18.457 5.36159 18.5106 5.30628 18.4711L4.87948 18.1661L4.45269 18.4711C4.39745 18.5106 4.32371 18.457 4.34417 18.3923L4.50238 17.8921L4.08042 17.5805C4.02582 17.5402 4.05394 17.4534 4.12183 17.4529L4.64636 17.4488L4.8123 16.9512C4.83402 16.8867 4.92519 16.8867 4.94667 16.9512Z" fill="#F5F5F5"/>
<path d="M6.96717 2.07843L7.1331 2.57609L7.65763 2.58015C7.72552 2.5807 7.75373 2.66734 7.69912 2.70765L7.27709 3.01929L7.43529 3.51945C7.45576 3.58421 7.38209 3.63773 7.32677 3.59828L6.89998 3.2932L6.47318 3.59828C6.41795 3.63781 6.3442 3.58421 6.36467 3.51945L6.52287 3.01929L6.10092 2.70765C6.04631 2.66734 6.07443 2.58062 6.14232 2.58015L6.66685 2.57609L6.83279 2.07843C6.85451 2.01406 6.94568 2.01406 6.96717 2.07843Z" fill="#F5F5F5"/>
<path d="M6.96717 6.2298L7.1331 6.72746L7.65763 6.73152C7.72552 6.73206 7.75373 6.81871 7.69912 6.8591L7.27709 7.17074L7.43529 7.67089C7.45576 7.73566 7.38209 7.78918 7.32677 7.74972L6.89998 7.44464L6.47318 7.74972C6.41795 7.78925 6.3442 7.73566 6.36467 7.67089L6.52287 7.17074L6.10092 6.8591C6.04631 6.81878 6.07443 6.73206 6.14232 6.73152L6.66685 6.72746L6.83279 6.2298C6.85451 6.16534 6.94568 6.16534 6.96717 6.2298Z" fill="#F5F5F5"/>
<path d="M6.96717 10.8338L7.1331 11.3314L7.65763 11.3355C7.72552 11.336 7.75373 11.4227 7.69912 11.4631L7.27709 11.7747L7.43529 12.2749C7.45576 12.3396 7.38209 12.3931 7.32677 12.3537L6.89998 12.0487L6.47318 12.3537C6.41795 12.3931 6.3442 12.3396 6.36467 12.2749L6.52287 11.7747L6.10092 11.4631C6.04631 11.4227 6.07443 11.336 6.14232 11.3355L6.66685 11.3314L6.83279 10.8338C6.85451 10.7693 6.94568 10.7693 6.96717 10.8338Z" fill="#F5F5F5"/>
<path d="M6.96717 15.0639L7.1331 15.5616L7.65763 15.5656C7.72552 15.5662 7.75373 15.6528 7.69912 15.6932L7.27709 16.0049L7.43529 16.505C7.45576 16.5698 7.38209 16.6233 7.32677 16.5838L6.89998 16.2788L6.47318 16.5838C6.41795 16.6233 6.3442 16.5698 6.36467 16.505L6.52287 16.0049L6.10092 15.6932C6.04631 15.6529 6.07443 15.5662 6.14232 15.5656L6.66685 15.5616L6.83279 15.0639C6.85451 14.9995 6.94568 14.9995 6.96717 15.0639Z" fill="#F5F5F5"/>
<path d="M6.96717 18.9134L7.1331 19.411L7.65763 19.4151C7.72552 19.4156 7.75373 19.5023 7.69912 19.5427L7.27709 19.8543L7.43529 20.3544C7.45576 20.4192 7.38209 20.4727 7.32677 20.4333L6.89998 20.1283L6.47318 20.4333C6.41795 20.4727 6.3442 20.4192 6.36467 20.3544L6.52287 19.8543L6.10092 19.5427C6.04631 19.5023 6.07443 19.4156 6.14232 19.4151L6.66685 19.411L6.83279 18.9134C6.85451 18.8489 6.94568 18.8489 6.96717 18.9134Z" fill="#F5F5F5"/>
<path d="M8.98771 4.04453L9.15364 4.54218L9.67818 4.54625C9.74607 4.54679 9.77427 4.63343 9.71958 4.67375L9.29763 4.98539L9.45583 5.48554C9.4763 5.55031 9.40263 5.6039 9.34732 5.56437L8.92052 5.25929L8.49372 5.56437C8.43849 5.6039 8.36474 5.55031 8.3852 5.48554L8.54341 4.98539L8.12138 4.67375C8.06677 4.63343 8.09489 4.54671 8.16286 4.54624L8.68739 4.54218L8.85333 4.04453C8.87513 3.98007 8.96622 3.98007 8.98771 4.04453Z" fill="#F5F5F5"/>
<path d="M8.98771 8.64847L9.15364 9.14613L9.67818 9.15019C9.74607 9.15073 9.77427 9.23738 9.71958 9.27777L9.29763 9.58941L9.45583 10.0896C9.4763 10.1543 9.40263 10.2079 9.34732 10.1684L8.92052 9.86331L8.49372 10.1684C8.43849 10.2079 8.36474 10.1543 8.3852 10.0896L8.54341 9.58941L8.12138 9.27777C8.06677 9.23745 8.09489 9.15073 8.16286 9.15019L8.68739 9.14613L8.85333 8.64847C8.87513 8.58401 8.96622 8.58401 8.98771 8.64847Z" fill="#F5F5F5"/>
<path d="M8.98771 13.0229L9.15364 13.5205L9.67818 13.5246C9.74607 13.5252 9.77427 13.6118 9.71958 13.6522L9.29763 13.9638L9.45583 14.464C9.4763 14.5288 9.40263 14.5823 9.34732 14.5428L8.92052 14.2377L8.49372 14.5428C8.43849 14.5824 8.36474 14.5288 8.3852 14.464L8.54341 13.9638L8.12138 13.6522C8.06677 13.6119 8.09489 13.5252 8.16286 13.5246L8.68739 13.5205L8.85333 13.0229C8.87513 12.9585 8.96622 12.9585 8.98771 13.0229Z" fill="#F5F5F5"/>
<path d="M8.98771 16.9512L9.15364 17.4488L9.67818 17.4529C9.74607 17.4534 9.77427 17.5401 9.71958 17.5805L9.29763 17.8921L9.45583 18.3923C9.4763 18.457 9.40263 18.5106 9.34732 18.4711L8.92052 18.1661L8.49372 18.4711C8.43849 18.5106 8.36474 18.457 8.3852 18.3923L8.54341 17.8921L8.12138 17.5805C8.06677 17.5402 8.09489 17.4534 8.16286 17.4529L8.68739 17.4488L8.85333 16.9512C8.87513 16.8867 8.96622 16.8867 8.98771 16.9512Z" fill="#F5F5F5"/>
<path d="M11.0084 2.07843L11.1744 2.57609L11.6989 2.58015C11.7668 2.5807 11.795 2.66734 11.7403 2.70765L11.3183 3.01929L11.4765 3.51945C11.497 3.58421 11.4233 3.63773 11.368 3.59828L10.9412 3.2932L10.5144 3.59828C10.4592 3.63781 10.3854 3.58421 10.4059 3.51945L10.5641 3.01929L10.1422 2.70765C10.0875 2.66734 10.1157 2.58062 10.1836 2.58015L10.7082 2.57609L10.8741 2.07843C10.8958 2.01406 10.9869 2.01406 11.0084 2.07843Z" fill="#F5F5F5"/>
<path d="M11.0083 6.22959L11.1742 6.72725L11.6987 6.73132C11.7666 6.73186 11.7948 6.8185 11.7402 6.85889L11.3182 7.17054L11.4765 7.67062C11.497 7.73538 11.4233 7.7889 11.368 7.74944L10.9412 7.44436L10.5144 7.74944C10.4591 7.78898 10.3854 7.73538 10.4059 7.67062L10.5641 7.17046L10.1421 6.85882C10.0875 6.8185 10.1156 6.73178 10.1836 6.73124L10.7081 6.72717L10.8741 6.22952C10.8957 6.16514 10.9868 6.16514 11.0083 6.22959Z" fill="#F5F5F5"/>
<path d="M11.0084 10.8338L11.1744 11.3314L11.6989 11.3355C11.7668 11.336 11.795 11.4227 11.7403 11.4631L11.3184 11.7747L11.4766 12.2749C11.497 12.3396 11.4234 12.3931 11.368 12.3537L10.9412 12.0487L10.5144 12.3537C10.4592 12.3931 10.3855 12.3396 10.4059 12.2749L10.5641 11.7747L10.1422 11.4631C10.0876 11.4227 10.1157 11.336 10.1837 11.3355L10.7082 11.3314L10.8741 10.8338C10.8959 10.7693 10.9869 10.7693 11.0084 10.8338Z" fill="#F5F5F5"/>
<path d="M11.0084 15.0639L11.1744 15.5616L11.6989 15.5656C11.7668 15.5662 11.795 15.6528 11.7403 15.6932L11.3183 16.0049L11.4765 16.505C11.497 16.5698 11.4233 16.6233 11.368 16.5838L10.9412 16.2788L10.5144 16.5838C10.4592 16.6233 10.3854 16.5698 10.4059 16.505L10.5641 16.0049L10.1422 15.6932C10.0875 15.6529 10.1157 15.5662 10.1836 15.5656L10.7082 15.5616L10.8741 15.0639C10.8958 14.9995 10.9869 14.9995 11.0084 15.0639Z" fill="#F5F5F5"/>
<path d="M11.0084 18.9134L11.1744 19.411L11.6989 19.4151C11.7668 19.4156 11.795 19.5023 11.7403 19.5427L11.3184 19.8543L11.4766 20.3544C11.497 20.4192 11.4234 20.4727 11.368 20.4333L10.9412 20.1283L10.5144 20.4333C10.4592 20.4727 10.3855 20.4192 10.4059 20.3544L10.5641 19.8543L10.1422 19.5427C10.0876 19.5023 10.1157 19.4156 10.1837 19.4151L10.7082 19.411L10.8741 18.9134C10.8959 18.8489 10.9869 18.8489 11.0084 18.9134Z" fill="#F5F5F5"/>
<path d="M13.029 4.04453L13.1949 4.54218L13.7195 4.54625C13.7874 4.54679 13.8156 4.63343 13.7609 4.67375L13.3388 4.98539L13.497 5.48554C13.5175 5.55031 13.4438 5.6039 13.3885 5.56437L12.9617 5.25929L12.5349 5.56437C12.4797 5.6039 12.406 5.55031 12.4264 5.48554L12.5846 4.98539L12.1627 4.67375C12.1081 4.63343 12.1362 4.54671 12.2041 4.54624L12.7286 4.54218L12.8945 4.04453C12.9164 3.98007 13.0075 3.98007 13.029 4.04453Z" fill="#F5F5F5"/>
<path d="M13.029 8.64847L13.1949 9.14613L13.7195 9.15019C13.7874 9.15073 13.8156 9.23738 13.7609 9.27777L13.3388 9.58941L13.497 10.0896C13.5175 10.1543 13.4438 10.2079 13.3885 10.1684L12.9617 9.86331L12.5349 10.1684C12.4797 10.2079 12.406 10.1543 12.4264 10.0896L12.5846 9.58941L12.1627 9.27777C12.1081 9.23745 12.1362 9.15073 12.2041 9.15019L12.7286 9.14613L12.8945 8.64847C12.9164 8.58401 13.0075 8.58401 13.029 8.64847Z" fill="#F5F5F5"/>
<path d="M13.029 13.0229L13.1949 13.5205L13.7195 13.5246C13.7874 13.5252 13.8156 13.6118 13.7609 13.6522L13.3388 13.9638L13.497 14.464C13.5175 14.5288 13.4438 14.5823 13.3885 14.5428L12.9617 14.2377L12.5349 14.5428C12.4797 14.5824 12.406 14.5288 12.4264 14.464L12.5846 13.9638L12.1627 13.6522C12.1081 13.6119 12.1362 13.5252 12.2041 13.5246L12.7286 13.5205L12.8945 13.0229C12.9164 12.9585 13.0075 12.9585 13.029 13.0229Z" fill="#F5F5F5"/>
<path d="M13.029 16.9512L13.1949 17.4488L13.7195 17.4529C13.7874 17.4534 13.8156 17.5401 13.7609 17.5805L13.3388 17.8921L13.497 18.3923C13.5175 18.457 13.4438 18.5106 13.3885 18.4711L12.9617 18.1661L12.5349 18.4711C12.4797 18.5106 12.406 18.457 12.4264 18.3923L12.5846 17.8921L12.1627 17.5805C12.1081 17.5402 12.1362 17.4534 12.2041 17.4529L12.7286 17.4488L12.8945 16.9512C12.9164 16.8867 13.0075 16.8867 13.029 16.9512Z" fill="#F5F5F5"/>
<path d="M15.0495 2.07843L15.2155 2.57609L15.74 2.58015C15.8079 2.5807 15.8361 2.66734 15.7814 2.70765L15.3594 3.01929L15.5176 3.51945C15.538 3.58421 15.4643 3.63773 15.4091 3.59828L14.9823 3.2932L14.5555 3.59828C14.5002 3.63781 14.4265 3.58421 14.4469 3.51945L14.6051 3.01929L14.1831 2.70765C14.1285 2.66734 14.1566 2.58062 14.2246 2.58015L14.7491 2.57609L14.9151 2.07843C14.9369 2.01406 15.028 2.01406 15.0495 2.07843Z" fill="#F5F5F5"/>
<path d="M15.0495 6.2298L15.2155 6.72746L15.74 6.73152C15.8079 6.73206 15.8361 6.81871 15.7814 6.8591L15.3594 7.17074L15.5176 7.67089C15.538 7.73566 15.4643 7.78918 15.4091 7.74972L14.9823 7.44464L14.5555 7.74972C14.5002 7.78925 14.4265 7.73566 14.4469 7.67089L14.6051 7.17074L14.1831 6.8591C14.1285 6.81878 14.1566 6.73206 14.2246 6.73152L14.7491 6.72746L14.9151 6.2298C14.9369 6.16534 15.028 6.16534 15.0495 6.2298Z" fill="#F5F5F5"/>
<path d="M15.0495 10.8338L15.2155 11.3314L15.74 11.3355C15.8079 11.336 15.8361 11.4227 15.7814 11.4631L15.3594 11.7747L15.5176 12.2749C15.538 12.3396 15.4643 12.3931 15.4091 12.3537L14.9823 12.0487L14.5555 12.3537C14.5002 12.3931 14.4265 12.3396 14.4469 12.2749L14.6051 11.7747L14.1831 11.4631C14.1285 11.4227 14.1566 11.336 14.2246 11.3355L14.7491 11.3314L14.9151 10.8338C14.9369 10.7693 15.028 10.7693 15.0495 10.8338Z" fill="#F5F5F5"/>
<path d="M15.0495 15.0639L15.2155 15.5616L15.74 15.5656C15.8079 15.5662 15.8361 15.6528 15.7814 15.6932L15.3594 16.0049L15.5176 16.505C15.538 16.5698 15.4643 16.6233 15.4091 16.5838L14.9823 16.2788L14.5555 16.5838C14.5002 16.6233 14.4265 16.5698 14.4469 16.505L14.6051 16.0049L14.1831 15.6932C14.1285 15.6529 14.1566 15.5662 14.2246 15.5656L14.7491 15.5616L14.9151 15.0639C14.9369 14.9995 15.028 14.9995 15.0495 15.0639Z" fill="#F5F5F5"/>
<path d="M15.0495 18.9134L15.2155 19.411L15.74 19.4151C15.8079 19.4156 15.8361 19.5023 15.7814 19.5427L15.3594 19.8543L15.5176 20.3544C15.538 20.4192 15.4643 20.4727 15.4091 20.4333L14.9823 20.1283L14.5555 20.4333C14.5002 20.4727 14.4265 20.4192 14.4469 20.3544L14.6051 19.8543L14.1831 19.5427C14.1285 19.5023 14.1566 19.4156 14.2246 19.4151L14.7491 19.411L14.9151 18.9134C14.9369 18.8489 15.028 18.8489 15.0495 18.9134Z" fill="#F5F5F5"/>
<path d="M17.07 4.04453L17.2359 4.54218L17.7605 4.54625C17.8284 4.54679 17.8566 4.63343 17.8019 4.67375L17.3799 4.98539L17.5381 5.48554C17.5586 5.55031 17.4848 5.6039 17.4296 5.56437L17.0028 5.25929L16.576 5.56437C16.5207 5.6039 16.447 5.55031 16.4675 5.48554L16.6257 4.98539L16.2036 4.67375C16.149 4.63343 16.1772 4.54671 16.245 4.54624L16.7697 4.54218L16.9356 4.04453C16.9574 3.98007 17.0485 3.98007 17.07 4.04453Z" fill="#F5F5F5"/>
<path d="M17.07 8.64847L17.2359 9.14613L17.7605 9.15019C17.8284 9.15073 17.8566 9.23738 17.8019 9.27777L17.3799 9.58941L17.5381 10.0896C17.5586 10.1543 17.4848 10.2079 17.4296 10.1684L17.0028 9.86331L16.576 10.1684C16.5207 10.2079 16.447 10.1543 16.4675 10.0896L16.6257 9.58941L16.2036 9.27777C16.149 9.23745 16.1772 9.15073 16.245 9.15019L16.7697 9.14613L16.9356 8.64847C16.9574 8.58401 17.0485 8.58401 17.07 8.64847Z" fill="#F5F5F5"/>
<path d="M17.07 13.0229L17.2359 13.5205L17.7605 13.5246C17.8284 13.5252 17.8566 13.6118 17.8019 13.6522L17.3799 13.9638L17.5381 14.464C17.5586 14.5288 17.4848 14.5823 17.4296 14.5428L17.0028 14.2377L16.576 14.5428C16.5207 14.5824 16.447 14.5288 16.4675 14.464L16.6257 13.9638L16.2036 13.6522C16.149 13.6119 16.1772 13.5252 16.245 13.5246L16.7697 13.5205L16.9356 13.0229C16.9574 12.9585 17.0485 12.9585 17.07 13.0229Z" fill="#F5F5F5"/>
<path d="M17.07 16.9512L17.2359 17.4488L17.7605 17.4529C17.8284 17.4534 17.8566 17.5401 17.8019 17.5805L17.3799 17.8921L17.5381 18.3923C17.5586 18.457 17.4848 18.5106 17.4296 18.4711L17.0028 18.1661L16.576 18.4711C16.5207 18.5106 16.447 18.457 16.4675 18.3923L16.6257 17.8921L16.2036 17.5805C16.149 17.5402 16.1772 17.4534 16.245 17.4529L16.7697 17.4488L16.9356 16.9512C16.9574 16.8867 17.0485 16.8867 17.07 16.9512Z" fill="#F5F5F5"/>
<path d="M19.0905 2.07843L19.2564 2.57609L19.7809 2.58015C19.8488 2.5807 19.877 2.66734 19.8224 2.70765L19.4004 3.01929L19.5586 3.51945C19.5791 3.58421 19.5053 3.63773 19.4501 3.59828L19.0233 3.2932L18.5965 3.59828C18.5412 3.63781 18.4675 3.58421 18.488 3.51945L18.6462 3.01929L18.2241 2.70765C18.1695 2.66734 18.1976 2.58062 18.2655 2.58015L18.7901 2.57609L18.956 2.07843C18.9779 2.01406 19.069 2.01406 19.0905 2.07843Z" fill="#F5F5F5"/>
<path d="M19.0905 6.2298L19.2564 6.72746L19.7809 6.73152C19.8488 6.73206 19.877 6.81871 19.8224 6.8591L19.4004 7.17074L19.5586 7.67089C19.5791 7.73566 19.5053 7.78918 19.4501 7.74972L19.0233 7.44464L18.5965 7.74972C18.5412 7.78925 18.4675 7.73566 18.488 7.67089L18.6462 7.17074L18.2241 6.8591C18.1695 6.81878 18.1976 6.73206 18.2655 6.73152L18.7901 6.72746L18.956 6.2298C18.9779 6.16534 19.069 6.16534 19.0905 6.2298Z" fill="#F5F5F5"/>
<path d="M19.0905 10.8338L19.2564 11.3314L19.7809 11.3355C19.8488 11.336 19.877 11.4227 19.8224 11.4631L19.4004 11.7747L19.5586 12.2749C19.5791 12.3396 19.5053 12.3931 19.4501 12.3537L19.0233 12.0487L18.5965 12.3537C18.5412 12.3931 18.4675 12.3396 18.488 12.2749L18.6462 11.7747L18.2241 11.4631C18.1695 11.4227 18.1976 11.336 18.2655 11.3355L18.7901 11.3314L18.956 10.8338C18.9779 10.7693 19.069 10.7693 19.0905 10.8338Z" fill="#F5F5F5"/>
<path d="M19.0905 15.0639L19.2564 15.5616L19.7809 15.5656C19.8488 15.5662 19.877 15.6528 19.8224 15.6932L19.4004 16.0049L19.5586 16.505C19.5791 16.5698 19.5053 16.6233 19.4501 16.5838L19.0233 16.2788L18.5965 16.5838C18.5412 16.6233 18.4675 16.5698 18.488 16.505L18.6462 16.0049L18.2241 15.6932C18.1695 15.6529 18.1976 15.5662 18.2655 15.5656L18.7901 15.5616L18.956 15.0639C18.9779 14.9995 19.069 14.9995 19.0905 15.0639Z" fill="#F5F5F5"/>
<path d="M19.0905 18.9134L19.2564 19.411L19.7809 19.4151C19.8488 19.4156 19.877 19.5023 19.8224 19.5427L19.4004 19.8543L19.5586 20.3544C19.5791 20.4192 19.5053 20.4727 19.4501 20.4333L19.0233 20.1283L18.5965 20.4333C18.5412 20.4727 18.4675 20.4192 18.488 20.3544L18.6462 19.8543L18.2241 19.5427C18.1695 19.5023 18.1976 19.4156 18.2655 19.4151L18.7901 19.411L18.956 18.9134C18.9779 18.8489 19.069 18.8489 19.0905 18.9134Z" fill="#F5F5F5"/>
</g>
<defs>
<clipPath id="clip0_1_7619">
<rect width="40" height="40" fill="white" transform="translate(-6.10352e-05 0.155151)"/>
</clipPath>
</defs>
</svg>
